<?xml version="1.0" standalone="no"?>
<!DOCTYPE svg PUBLIC "-//W3C//DTD SVG 20010904//EN"
 "http://www.w3.org/TR/2001/REC-SVG-20010904/DTD/svg10.dtd">
<svg version="1.0" xmlns="http://www.w3.org/2000/svg"
 width="1335.000000pt" height="1335.000000pt" viewBox="0 0 1335.000000 1335.000000"
 preserveAspectRatio="xMidYMid meet">
<metadata>
Created by potrace 1.14, written by Peter Selinger 2001-2017
</metadata>
<g transform="translate(0.000000,1335.000000) scale(0.100000,-0.100000)"
fill="#000000" stroke="none">
<path d="M4458 10515 c-2 -2 -50 -6 -108 -9 -58 -4 -116 -8 -130 -10 -14 -2
-52 -7 -85 -11 -32 -4 -66 -8 -75 -10 -8 -1 -37 -6 -65 -9 -79 -11 -315 -62
-406 -89 -46 -14 -169 -57 -274 -97 -104 -40 -206 -76 -225 -82 -19 -5 -44
-13 -55 -18 -74 -32 -441 -121 -600 -145 -22 -3 -47 -7 -55 -10 -8 -2 -42 -7
-75 -10 -33 -4 -71 -9 -85 -11 -140 -20 -674 -27 -835 -11 -92 9 -228 26 -265
33 -14 2 -43 7 -65 10 -37 6 -250 49 -285 58 -8 2 -37 10 -65 16 -154 37 -419
127 -583 198 -50 22 -92 39 -92 36 0 -2 19 -34 41 -71 62 -101 134 -242 180
-351 22 -53 47 -110 54 -127 37 -85 129 -379 140 -450 2 -11 10 -49 19 -85 8
-36 18 -81 21 -100 3 -19 8 -46 10 -60 3 -14 7 -38 9 -55 3 -16 7 -52 11 -80
3 -27 8 -61 10 -75 5 -27 12 -102 20 -195 13 -158 17 -678 18 -2334 1 -988 -2
-1843 -6 -1901 -8 -103 -10 -130 -22 -220 -4 -25 -9 -61 -11 -80 -3 -19 -9
-57 -14 -85 -5 -27 -12 -65 -15 -83 -38 -230 -123 -509 -220 -725 -49 -107
-168 -324 -185 -337 -9 -7 -60 -83 -60 -91 0 -3 700 -6 1555 -6 855 0 1555 4
1555 8 0 4 -6 14 -13 21 -7 7 -33 42 -57 78 -24 36 -46 67 -49 70 -3 3 -12 16
-20 30 -72 126 -91 160 -91 167 0 4 -17 49 -39 98 -42 99 -88 235 -127 384
-24 87 -32 125 -64 286 -16 80 -49 342 -55 440 -3 50 -8 106 -10 125 -14 107
-24 2776 -12 2955 5 61 10 142 13 180 2 39 6 88 9 110 2 22 7 69 10 105 3 36
8 76 10 90 2 14 6 50 10 80 34 287 140 687 239 903 14 32 26 61 26 66 0 5 7
14 15 21 8 7 15 18 15 26 0 16 109 198 121 202 5 2 9 10 9 18 0 8 4 14 8 14 5
0 13 9 18 19 10 21 82 107 129 155 70 72 151 139 230 191 83 54 213 121 228
117 4 -1 7 2 7 7 0 5 10 11 23 14 12 3 60 18 107 35 83 29 193 56 275 67 22 3
49 8 60 10 120 26 485 22 536 -6 11 -5 19 -7 19 -4 0 8 121 -40 160 -64 19
-11 42 -24 50 -28 30 -13 96 -68 156 -128 121 -122 240 -329 319 -555 32 -94
106 -367 119 -445 3 -16 14 -82 25 -145 11 -63 23 -135 26 -160 3 -25 8 -56
10 -70 3 -14 7 -52 10 -85 3 -33 7 -78 10 -100 5 -38 9 -86 21 -255 3 -41 7
-95 9 -120 13 -162 19 -712 19 -1775 0 -1103 -4 -1418 -19 -1555 -2 -25 -7
-72 -9 -105 -5 -58 -9 -91 -21 -165 -3 -19 -7 -51 -10 -70 -4 -30 -32 -177
-39 -205 -2 -5 -6 -28 -11 -50 -12 -61 -13 -66 -30 -125 -9 -30 -17 -62 -19
-70 -2 -8 -17 -53 -32 -100 -15 -47 -29 -89 -30 -95 -1 -5 -6 -21 -12 -35 -5
-14 -10 -28 -11 -33 0 -4 -10 -24 -21 -44 -11 -21 -20 -41 -20 -46 0 -14 -81
-176 -91 -183 -5 -3 -7 -9 -4 -14 3 -5 0 -12 -6 -16 -6 -3 -18 -21 -26 -38
-21 -46 -68 -120 -112 -177 l-20 -26 1554 0 c855 0 1555 1 1555 3 0 2 -21 36
-47 76 -26 40 -56 89 -67 108 -10 19 -30 53 -42 75 -13 22 -33 60 -45 85 -89
192 -93 201 -141 345 -43 131 -93 324 -103 395 -3 25 -10 61 -15 80 -11 42
-16 76 -25 151 -3 31 -7 65 -9 75 -10 53 -16 108 -22 189 -3 50 -7 106 -10
125 -2 19 -4 636 -5 1370 -1 1165 3 1560 16 1700 2 19 6 76 10 125 3 50 8 104
10 120 2 17 7 62 10 100 5 59 34 255 50 345 5 25 52 231 60 260 2 8 11 42 20
75 17 64 61 197 76 230 4 11 17 43 28 72 24 61 120 256 131 263 4 3 13 16 20
30 14 27 23 39 108 150 131 170 273 286 469 384 131 66 355 136 483 152 30 3
66 8 80 10 86 11 167 16 283 16 134 1 181 -4 252 -24 22 -6 45 -12 50 -13 16
-4 149 -67 155 -74 3 -3 18 -13 34 -21 50 -26 200 -181 256 -265 54 -82 160
-292 160 -317 0 -8 4 -18 9 -24 29 -32 143 -459 167 -624 3 -19 7 -46 9 -60 3
-14 7 -42 10 -62 9 -65 15 -112 20 -143 2 -16 7 -57 10 -90 8 -82 14 -143 20
-190 5 -45 14 -181 20 -300 26 -491 27 -3175 1 -3325 -2 -14 -7 -56 -11 -95
-9 -100 -20 -183 -36 -267 -5 -32 -12 -70 -15 -85 -10 -60 -47 -213 -76 -313
-17 -58 -31 -109 -33 -115 -1 -5 -7 -23 -13 -38 -7 -16 -12 -32 -12 -36 0 -22
-78 -201 -141 -326 -76 -149 -82 -158 -164 -268 l-25 -34 1560 0 c858 0 1560
1 1560 3 0 1 -6 9 -13 16 -20 20 -99 145 -142 223 -20 39 -41 75 -45 80 -28
37 -181 438 -196 511 -2 12 -15 64 -28 115 -13 52 -27 110 -30 129 -3 19 -8
46 -11 60 -5 25 -28 172 -40 260 -3 25 -8 70 -10 100 -3 30 -7 75 -10 100 -11
113 -17 502 -20 1480 -2 580 -5 1085 -8 1121 -7 91 -18 209 -22 239 -2 14 -7
56 -10 95 -4 38 -8 72 -10 75 -2 3 -6 32 -10 64 -5 48 -48 290 -69 391 -49
235 -150 554 -247 782 -61 144 -195 404 -211 411 -5 2 -8 8 -8 12 0 30 -212
327 -324 454 -153 174 -321 325 -471 426 -13 8 -50 34 -85 58 -34 23 -63 42
-65 42 -1 0 -32 17 -66 38 -103 62 -421 208 -494 226 -33 8 -106 30 -140 41
-22 8 -51 16 -65 19 -14 3 -60 14 -103 25 -43 11 -99 22 -124 26 -26 3 -49 8
-53 10 -4 2 -29 7 -56 10 -27 3 -58 8 -69 10 -11 2 -45 6 -75 10 -30 3 -80 8
-110 11 -87 10 -563 12 -622 3 -366 -56 -343 -52 -443 -78 -44 -12 -90 -24
-102 -27 -47 -10 -286 -96 -384 -139 -133 -58 -337 -170 -469 -258 -58 -39
-107 -73 -110 -76 -3 -3 -23 -19 -45 -36 -22 -16 -42 -32 -45 -35 -3 -3 -27
-23 -55 -45 -86 -68 -224 -200 -311 -296 -124 -137 -189 -218 -264 -331 -25
-37 -47 -68 -50 -68 -3 0 -25 38 -49 85 -24 47 -47 88 -51 90 -4 3 -20 28 -35
57 -15 29 -31 55 -34 58 -4 3 -21 26 -38 52 -41 61 -75 110 -88 124 -5 6 -26
30 -45 54 -71 89 -238 261 -299 308 -12 9 -37 30 -54 46 -91 83 -385 257 -542
320 -38 16 -83 34 -100 41 -132 56 -458 131 -660 150 -70 7 -511 15 -517 10z"/>
</g>
</svg>
